<?xml version="1.0" encoding="UTF-8"?>
<svg width="157px" height="37px" viewBox="0 0 157 37" version="1.1" xmlns="http://www.w3.org/2000/svg" xmlns:xlink="http://www.w3.org/1999/xlink">
    <!-- Generator: Sketch 46.2 (44496) - http://www.bohemiancoding.com/sketch -->
    <title>LOGO</title>
    <desc>Created with Sketch.</desc>
    <defs>
        <linearGradient x1="223.436105%" y1="-69.2077637%" x2="0%" y2="50%" id="linearGradient-1">
            <stop stop-color="#F9FCFF" offset="0%"></stop>
            <stop stop-color="#0087FF" offset="100%"></stop>
        </linearGradient>
    </defs>
    <g id="Page-1" stroke="none" stroke-width="1" fill="none" fill-rule="evenodd">
        <g id="G2C_CreateAccount_Username" transform="translate(-1130.000000, -72.000000)">
            <g id="LOGO" transform="translate(1130.000000, 72.000000)">
                <path d="M141.894977,8.58823529 C141.894977,8.21033679 141.706738,7.91265706 141.330255,7.69518717 C140.953773,7.47771727 140.349617,7.28342332 139.517769,7.11229947 C136.749725,6.53475647 135.365724,5.3654277 135.365724,3.60427807 C135.365724,2.57753497 135.794191,1.72014604 136.651137,1.03208556 C137.508083,0.34402508 138.628551,0 140.012573,0 C141.489819,0 142.67124,0.345807594 143.55687,1.03743316 C144.442501,1.72905872 144.88531,2.62744545 144.88531,3.73262032 L141.776654,3.73262032 C141.776654,3.29055037 141.633234,2.92513513 141.34639,2.63636364 C141.059546,2.34759214 140.611359,2.20320856 140.001816,2.20320856 C139.478326,2.20320856 139.073165,2.32085444 138.786321,2.55614973 C138.499477,2.79144503 138.356057,3.09090727 138.356057,3.45454545 C138.356057,3.79679316 138.519197,4.07308273 138.845482,4.28342246 C139.171767,4.49376219 139.722141,4.67557856 140.496619,4.82887701 C141.271098,4.98217545 141.923658,5.15507925 142.454319,5.34759358 C144.096501,5.94652706 144.917579,6.98394984 144.917579,8.45989305 C144.917579,9.51515679 144.462221,10.3689807 143.551492,11.0213904 C142.640762,11.6738001 141.46472,12 140.023329,12 C139.04806,12 138.182163,11.8270962 137.425612,11.4812834 C136.669061,11.1354706 136.075662,10.6613221 135.645396,10.0588235 C135.21513,9.45632497 135,8.80570759 135,8.10695187 L137.947307,8.10695187 C137.975991,8.65597422 138.180364,9.07664738 138.560432,9.36898396 C138.940501,9.66132053 139.449641,9.80748663 140.087869,9.80748663 C140.68307,9.80748663 141.13305,9.69518829 141.437821,9.47058824 C141.742593,9.24598818 141.894977,8.95187348 141.894977,8.58823529 Z M151.589433,8.01069519 L153.751509,0.213903743 L157,0.213903743 L153.073843,11.7860963 L150.105023,11.7860963 L146.178867,0.213903743 L149.427358,0.213903743 L151.589433,8.01069519 Z" id="sv" fill="url(#linearGradient-1)"></path>
                <path d="M21.8289296,36.6272494 L16.2979508,36.6272494 L5.53097879,18.7724936 L5.53097879,36.6272494 L0,36.6272494 L0,9.49100257 L5.53097879,9.49100257 L16.3163874,27.3830334 L16.3163874,9.49100257 L21.8289296,9.49100257 L21.8289296,36.6272494 Z M34.8772608,37 C31.951973,37 29.5706031,36.0929825 27.7330799,34.2789203 C25.8955566,32.4648581 24.9768088,30.0482156 24.9768088,27.0289203 L24.9768088,26.5070694 C24.9768088,24.4817808 25.3639734,22.670852 26.1383143,21.0742288 C26.9126552,19.4776056 28.0096217,18.2475407 29.4292467,17.3839974 C30.8488717,16.5204541 32.4682032,16.0886889 34.2872898,16.0886889 C37.0159196,16.0886889 39.1637616,16.9584317 40.7308801,18.6979434 C42.2979986,20.4374551 43.081546,22.9037972 43.081546,26.0970437 L43.081546,28.2962725 L30.3787314,28.2962725 C30.5508072,29.6133313 31.0700994,30.6694476 31.9366238,31.464653 C32.8031481,32.2598583 33.9001146,32.657455 35.2275562,32.657455 C37.2801741,32.657455 38.8841419,31.9057487 40.0395077,30.4023136 L42.6575043,33.3656812 C41.8585812,34.5087889 40.7769784,35.4002753 39.4126634,36.0401671 C38.0483485,36.6800589 36.5365628,37 34.8772608,37 Z M34.6530494,20.4498715 C33.5960126,20.4498715 32.7387194,20.8101935 32.0811442,21.5308483 C31.423569,22.2515032 31.0026043,23.2827696 30.8182374,24.6246787 L38.229749,24.6246787 L38.229749,24.1960154 C38.2051667,23.0032074 37.8856023,22.0806588 37.271046,21.4283419 C36.6564897,20.776025 35.7838329,20.4498715 34.6530494,20.4498715 Z M53.0236121,11.503856 L53.0236121,16.4614396 L56.4343824,16.4614396 L56.4343824,20.4125964 L53.0236121,20.4125964 L53.0236121,30.4768638 C53.0236121,31.2223688 53.164958,31.7566393 53.4476538,32.0796915 C53.7303497,32.4027437 54.2711511,32.5642674 55.0700743,32.5642674 C55.6600483,32.5642674 56.1824133,32.5207802 56.6371849,32.4338046 L56.6371849,36.5154242 C55.5924393,36.8384763 54.5169819,37 53.4107806,37 C49.6742785,37 47.7691826,35.0927783 47.6954359,31.2782776 L47.6954359,20.4125964 L44.7824537,20.4125964 L44.7824537,16.4614396 L47.6954359,16.4614396 L47.6954359,11.503856 L53.0236121,11.503856 Z M77.6751095,29.3026992 L80.2931061,16.4614396 L85.4369164,16.4614396 L80.3484159,36.6272494 L75.8867597,36.6272494 L72.1072575,23.93509 L68.3277553,36.6272494 L63.8845357,36.6272494 L58.7960352,16.4614396 L63.9398455,16.4614396 L66.5394055,29.2840617 L70.1898515,16.4614396 L74.0431001,16.4614396 L77.6751095,29.3026992 Z M86.6305164,26.3579692 C86.6305164,24.3575307 87.0115355,22.574558 87.7735853,21.0089974 C88.5356351,19.4434369 89.6326016,18.2320094 91.0645177,17.3746787 C92.4964338,16.5173479 94.1587836,16.0886889 96.0516169,16.0886889 C98.7433734,16.0886889 100.940379,16.9211571 102.6427,18.5861183 C104.345021,20.2510794 105.294496,22.5124107 105.491154,25.3701799 L105.528027,26.7493573 C105.528027,29.8432031 104.673807,32.3250763 102.96534,34.1950514 C101.256874,36.0650265 98.9646135,37 96.0884901,37 C93.2123667,37 90.9170335,36.0681327 89.2024215,34.2043702 C87.4878095,32.3406076 86.6305164,29.8059286 86.6305164,26.6002571 L86.6305164,26.3579692 Z M91.9586926,26.7493573 C91.9586926,28.6628202 92.3151299,30.1258518 93.0280152,31.1384961 C93.7409004,32.1511405 94.7610486,32.657455 96.0884901,32.657455 C97.3790583,32.657455 98.3869154,32.1573529 99.1120918,31.1571337 C99.8372682,30.1569145 100.199851,28.5572089 100.199851,26.3579692 C100.199851,24.4817815 99.8372682,23.0280686 99.1120918,21.9967866 C98.3869154,20.9655047 97.3667673,20.4498715 96.0516169,20.4498715 C94.7487576,20.4498715 93.7409004,20.9623985 93.0280152,21.9874679 C92.3151299,23.0125373 91.9586926,24.5998179 91.9586926,26.7493573 Z M119.598103,21.5122108 C118.872927,21.4128101 118.233798,21.3631105 117.680697,21.3631105 C115.664953,21.3631105 114.343677,22.0526923 113.716829,23.4318766 L113.716829,36.6272494 L108.388653,36.6272494 L108.388653,16.4614396 L113.421844,16.4614396 L113.569336,18.8656812 C114.638664,17.0143438 116.119723,16.0886889 118.012556,16.0886889 C118.60253,16.0886889 119.155622,16.1694508 119.67185,16.3309769 L119.598103,21.5122108 Z M129.753676,28.5385604 L127.83627,30.4768638 L127.83627,36.6272494 L122.508094,36.6272494 L122.508094,8 L127.83627,8 L127.83627,23.8605398 L128.86872,22.5186375 L133.975657,16.4614396 L140.373156,16.4614396 L133.164447,24.8669666 L141,36.6272494 L134.87905,36.6272494 L129.753676,28.5385604 Z" id="Network" fill="#fff"></path>
            </g>
        </g>
    </g>
</svg>
